<?xml version="1.0" encoding="UTF-8"?>
<svg version="1.1" xmlns="http://www.w3.org/2000/svg" width="1693" height="1475">
<path d="M0 0 C95.99423747 -0.92733779 95.99423747 -0.92733779 143.42958069 -1.18560791 C144.13774144 -1.18947351 144.84590219 -1.19333911 145.57552236 -1.19732184 C160.9675697 -1.28113278 176.3596426 -1.3586965 191.75175362 -1.42982922 C199.30057253 -1.46475316 206.84938451 -1.50105687 214.39819336 -1.53808594 C215.14937117 -1.54174719 215.90054899 -1.54540844 216.67448976 -1.54918065 C241.00155298 -1.66839743 265.32678938 -1.87863165 289.65274684 -2.13632218 C314.66118966 -2.40075983 339.66862255 -2.57286523 364.67843977 -2.62961972 C368.21474755 -2.63768748 371.75105191 -2.64680529 375.28735542 -2.65656281 C375.98331707 -2.65845065 376.67927873 -2.66033849 377.39633012 -2.66228355 C388.57847483 -2.69531208 399.75748716 -2.82499777 410.93835665 -2.99129695 C422.19277462 -3.15661052 433.44416578 -3.21673586 444.70005136 -3.17803857 C450.79572821 -3.16012351 456.8822579 -3.18721921 462.97629929 -3.3377533 C499.62041241 -4.19874444 499.62041241 -4.19874444 507.55736089 2.71323681 C513.48432846 8.92359753 516.7048794 16.51926485 519.61336529 24.48881102 C521.77035945 29.95067786 524.88294424 34.71282038 528.0625 39.625 C529.20413902 41.4891832 530.34144698 43.35603202 531.47265625 45.2265625 C535.97235823 52.60125037 540.50685436 59.95449587 545.03930664 67.30908203 C549.96021784 75.29821432 554.84608352 83.30803031 559.7175293 91.32739258 C564.0561348 98.46379614 568.42918005 105.57848987 572.8125 112.6875 C578.77348058 122.35676501 584.68566516 132.05432584 590.57192993 141.76913452 C595.68128928 150.2001666 600.82466753 158.60922429 606 167 C611.89962187 176.56506741 617.74917218 186.1590798 623.57275391 195.77050781 C628.68183969 204.20108126 633.82494789 212.60967883 639 221 C644.89962187 230.56506741 650.74917218 240.1590798 656.57275391 249.77050781 C661.68183969 258.20108126 666.82494789 266.60967883 672 275 C677.89962187 284.56506741 683.74917218 294.1590798 689.57275391 303.77050781 C694.68183969 312.20108126 699.82494789 320.60967883 705 329 C710.89962187 338.56506741 716.74917218 348.1590798 722.57275391 357.77050781 C727.68183969 366.20108126 732.82494789 374.60967883 738 383 C743.89962187 392.56506741 749.74917218 402.1590798 755.57275391 411.77050781 C760.68183969 420.20108126 765.82494789 428.60967883 771 437 C776.89962187 446.56506741 782.74917218 456.1590798 788.57275391 465.77050781 C793.68183969 474.20108126 798.82494789 482.60967883 804 491 C809.89962187 500.56506741 815.74917218 510.1590798 821.57275391 519.77050781 C826.68183969 528.20108126 831.82494789 536.60967883 837 545 C842.89962187 554.56506741 848.74917218 564.1590798 854.57275391 573.77050781 C860.32560175 583.26336198 866.12870263 592.7241791 871.95629883 602.17138672 C877.79260952 611.64173591 883.5693535 621.14761701 889.33007812 630.6640625 C892.84628388 636.4690232 896.38404224 642.25659525 900 648 C907.92617569 635.89056492 915.46042345 623.54067372 923.02929688 611.20654297 C925.84156891 606.63067813 928.66955899 602.06464069 931.5 597.5 C936.34920012 589.67639189 941.17847685 581.84069325 946 574 C951.34071127 565.31501032 956.69524619 556.63884218 962.06640625 547.97265625 C966.3917562 540.99045744 970.69763623 533.99638156 975 527 C982.49639535 514.81044197 990.02444686 502.64075813 997.56347656 490.47753906 C1004.74944452 478.882508 1011.91226862 467.27352403 1019.05786133 455.65356445 C1023.71355234 448.08464695 1028.3851165 440.52575966 1033.06640625 432.97265625 C1037.39175613 425.99045755 1041.69766393 418.99639851 1046 412 C1051.34071127 403.31501032 1056.69524619 394.63884218 1062.06640625 385.97265625 C1066.39175613 378.99045755 1070.69766393 371.99639851 1075 365 C1080.34071127 356.31501032 1085.69524619 347.63884218 1091.06640625 338.97265625 C1095.39175613 331.99045755 1099.69766393 324.99639851 1104 318 C1109.34071127 309.31501032 1114.69524619 300.63884218 1120.06640625 291.97265625 C1124.3917562 284.99045744 1128.69763623 277.99638156 1133 271 C1140.49639535 258.81044197 1148.02444686 246.64075813 1155.56347656 234.47753906 C1162.74944452 222.882508 1169.91226862 211.27352403 1177.05786133 199.65356445 C1181.71355234 192.08464695 1186.3851165 184.52575966 1191.06640625 176.97265625 C1195.39175613 169.99045755 1199.69766393 162.99639851 1204 156 C1209.34071127 147.31501032 1214.69524619 138.63884218 1220.06640625 129.97265625 C1224.39175613 122.99045755 1228.69766393 115.99639851 1233 109 C1238.34071127 100.31501032 1243.69524619 91.63884218 1249.06640625 82.97265625 C1253.39175613 75.99045755 1257.69766393 68.99639851 1262 62 C1267.3322871 53.3287096 1272.67525833 44.66427022 1278.04223633 36.0144043 C1281.14167034 31.01533271 1284.22364548 26.00588948 1287.29296875 20.98828125 C1288.39587125 19.18758625 1289.49894863 17.38699848 1290.60205078 15.58642578 C1291.32101619 14.41143644 1292.0389664 13.23582525 1292.75585938 12.05957031 C1293.75533782 10.4197131 1294.75845044 8.78207256 1295.76171875 7.14453125 C1296.6273645 5.72684448 1296.6273645 5.72684448 1297.51049805 4.28051758 C1299 2 1299 2 1301 0 C1303.73329279 -0.19335225 1306.36487751 -0.26042936 1309.09902954 -0.24050903 C1310.36953582 -0.24307231 1310.36953582 -0.24307231 1311.6657089 -0.24568737 C1314.52022508 -0.24899672 1317.37450917 -0.23795489 1320.22900391 -0.22705078 C1322.26868179 -0.22648698 1324.30836008 -0.22680262 1326.34803772 -0.22793579 C1331.8994304 -0.22851152 1337.45073732 -0.21672174 1343.00211 -0.20278788 C1348.79838919 -0.19031703 1354.59467016 -0.1891129 1360.39096069 -0.18673706 C1371.37340459 -0.18051154 1382.35580885 -0.16408626 1393.33823526 -0.14403808 C1405.83864287 -0.12171237 1418.33905234 -0.11069404 1430.83947492 -0.10064721 C1456.55967195 -0.07972094 1482.27983376 -0.0445242 1508 0 C1507.36575609 1.28084221 1506.73009025 2.56098037 1506.09382629 3.84082031 C1505.56307605 4.91024872 1505.56307605 4.91024872 1505.02160358 6.00128174 C1503.82679496 8.33886732 1502.49946474 10.54581495 1501.07421875 12.75 C1500.53289307 13.59288574 1499.99156738 14.43577148 1499.43383789 15.30419922 C1498.56940063 16.63862061 1498.56940063 16.63862061 1497.6875 18 C1496.42881871 19.96037995 1495.17103694 21.92133769 1493.9140625 23.8828125 C1492.94388184 25.39536621 1492.94388184 25.39536621 1491.95410156 26.93847656 C1488.78970531 31.89618884 1485.67471183 36.88441906 1482.5625 41.875 C1481.6331665 43.36422974 1481.6331665 43.36422974 1480.68505859 44.88354492 C1479.42450692 46.90411114 1478.16425382 48.92486365 1476.90429688 50.94580078 C1473.70958414 56.06962851 1470.51163294 61.19143114 1467.3125 66.3125 C1466.37289429 67.81659424 1466.37289429 67.81659424 1465.41430664 69.35107422 C1461.14714039 76.1769749 1456.85560417 82.98704822 1452.55126953 89.78955078 C1445.99065875 100.16573779 1439.50020065 110.58591151 1433 121 C1425.54328158 132.94654283 1418.08137153 144.88909636 1410.55126953 156.78955078 C1403.99065875 167.16573779 1397.50020065 177.58591151 1391 188 C1383.54328158 199.94654283 1376.08137153 211.88909636 1368.55126953 223.78955078 C1361.99065875 234.16573779 1355.50020065 244.58591151 1349 255 C1341.54328158 266.94654283 1334.08137153 278.88909636 1326.55126953 290.78955078 C1319.99065875 301.16573779 1313.50020065 311.58591151 1307 322 C1299.54328158 333.94654283 1292.08137153 345.88909636 1284.55126953 357.78955078 C1277.99065875 368.16573779 1271.50020065 378.58591151 1265 389 C1257.54328158 400.94654283 1250.08137153 412.88909636 1242.55126953 424.78955078 C1235.99065875 435.16573779 1229.50020065 445.58591151 1223 456 C1215.54328158 467.94654283 1208.08137153 479.88909636 1200.55126953 491.78955078 C1194.6375846 501.14256726 1188.78295976 510.5324913 1182.92333984 519.91943359 C1179.16209095 525.94373399 1175.39684818 531.96553882 1171.63232422 537.98779297 C1168.46837635 543.04961403 1165.30545562 548.11207148 1162.14453125 553.17578125 C1155.97142253 563.06279278 1149.78374244 572.93984891 1143.55126953 582.78955078 C1136.99065875 593.16573779 1130.50020065 603.58591151 1124 614 C1116.54328158 625.94654283 1109.08137153 637.88909636 1101.55126953 649.78955078 C1094.99065875 660.16573779 1088.50020065 670.58591151 1082 681 C1074.54328158 692.94654283 1067.08137153 704.88909636 1059.55126953 716.78955078 C1052.99065875 727.16573779 1046.50020065 737.58591151 1040 748 C1025.65411233 770.98380491 1025.65411233 770.98380491 1019 781.5 C1014.24996742 789.00779943 1009.52515706 796.53118265 1004.8125 804.0625 C1004.15185547 805.11695313 1003.49121094 806.17140625 1002.81054688 807.2578125 C1002.19888672 808.23621094 1001.58722656 809.21460938 1000.95703125 810.22265625 C1000.13682495 811.53375366 1000.13682495 811.53375366 999.30004883 812.87133789 C997.36396124 816.04143136 996.87430628 817.7714787 996.86938947 821.46751225 C996.86386841 822.88903691 996.86386841 822.88903691 996.85823581 824.33927923 C996.85925847 825.38968451 996.86028114 826.44008978 996.8613348 827.52232552 C996.85849258 828.63558309 996.85565036 829.74884066 996.85272202 830.89583331 C996.84432111 834.67080736 996.84310261 838.44575094 996.84178162 842.22073364 C996.83777437 844.93658042 996.83226273 847.65242367 996.82681805 850.36826789 C996.81573722 856.29598799 996.80838 862.22370379 996.80341911 868.15143204 C996.79602572 876.96582707 996.78294554 885.78020716 996.76867336 894.59459341 C996.74483082 909.41985058 996.72564013 924.2451104 996.70907402 939.07037735 C996.69264949 953.75542692 996.67417369 968.44047154 996.65294075 983.12551498 C996.65096434 984.49363304 996.65096434 984.49363304 996.648948 985.88938984 C996.64224619 990.52112152 996.63550755 995.15285314 996.62875474 999.78458475 C996.58095464 1032.61598789 996.53778029 1065.44739566 996.49731445 1098.27880859 C996.45798477 1130.17985368 996.41656717 1162.08089494 996.37231445 1193.98193359 C996.37095192 1194.96475933 996.36958939 1195.94758507 996.36818558 1196.9601934 C996.35450054 1206.82987137 996.34077297 1216.69954927 996.32701423 1226.56922714 C996.2989855 1246.67602372 996.27124073 1266.7828207 996.2436676 1286.88961792 C996.2417653 1288.27642362 996.2417653 1288.27642362 996.23982458 1289.69124559 C996.20095717 1318.03709229 996.16329373 1346.38294041 996.1268158 1374.72879028 C996.1257794 1375.53377359 996.12474301 1376.3387569 996.12367522 1377.16813364 C996.08170829 1409.77875482 996.04101418 1442.38937761 996 1475 C931.98 1475 867.96 1475 802 1475 C802.04825928 1455.76847656 802.09651855 1436.53695313 802.14624023 1416.72265625 C802.17626258 1403.87841954 802.20603089 1391.03418586 802.23228455 1378.18994141 C802.23396002 1377.37386202 802.23563549 1376.55778264 802.23736174 1375.71697357 C802.29352598 1348.22978461 802.32905078 1320.74260924 802.34913635 1293.25537109 C802.34979747 1292.35786217 802.35045859 1291.46035325 802.35113974 1290.53564709 C802.36539815 1271.02746522 802.37631667 1251.51928281 802.38379767 1232.01109719 C802.387487 1222.44343298 802.39191387 1212.87576918 802.39672852 1203.30810547 C802.39719506 1202.35603921 802.3976616 1201.40397294 802.39814228 1200.42305619 C802.41359293 1169.59799821 802.47768842 1138.77327617 802.56717696 1107.94835167 C802.65892741 1076.25537532 802.70126901 1044.56270407 802.68198875 1012.86959161 C802.67928461 1008.38684666 802.67714167 1003.9041016 802.67534065 999.4213562 C802.67496885 998.5391412 802.67459704 997.65692619 802.67421397 996.7479774 C802.6696839 982.58179288 802.71679634 968.41623459 802.78352317 954.25022619 C802.8495944 939.98709916 802.86054084 925.72475491 802.81635087 911.46153647 C802.79178215 903.00064787 802.8083448 894.54225635 802.88580123 886.08167374 C802.93352561 880.41128075 802.92557058 874.74262896 802.87465765 869.07227081 C802.84726693 865.85167096 802.85042737 862.63671228 802.90520256 859.4163295 C803.19861592 840.97861162 798.81399349 829.59401084 787.94145227 814.73875117 C784.72042762 810.19494386 781.90368566 805.41195688 779.0625 800.625 C778.42046631 799.56788818 777.77843262 798.51077637 777.11694336 797.42163086 C776.36102905 796.17458374 776.36102905 796.17458374 775.58984375 794.90234375 C771.79229255 788.64921737 767.96156716 782.41674495 764.125 776.1875 C763.45879639 775.10573486 762.79259277 774.02396973 762.10620117 772.90942383 C760.07124036 769.60601145 758.03572591 766.30294093 756 763 C747.65769808 749.46471492 739.33178338 735.92055604 731.07763672 722.33129883 C726.72188792 715.1674505 722.31599428 708.0358096 717.89379883 700.9128418 C713.2951544 693.49722305 708.75944261 686.04424765 704.23046875 678.5859375 C700.35159442 672.20428617 696.43905613 665.84465975 692.5 659.5 C687.36201255 651.22421486 682.28640905 642.91205552 677.23046875 634.5859375 C673.35159442 628.20428617 669.43905613 621.84465975 665.5 615.5 C660.96146797 608.18976106 656.46615397 600.85467756 652 593.5 C647.0494838 585.34929462 642.05930788 577.22473556 637.03295898 569.12060547 C626.97499417 552.90257223 616.9855098 536.64310701 607.07836914 520.33251953 C602.72239189 513.1682546 598.3162446 506.0362128 593.89379883 498.9128418 C589.2951544 491.49722305 584.75944261 484.04424765 580.23046875 476.5859375 C576.35159442 470.20428617 572.43905613 463.84465975 568.5 457.5 C563.36201255 449.22421486 558.28640905 440.91205552 553.23046875 432.5859375 C549.35159442 426.20428617 545.43905613 419.84465975 541.5 413.5 C536.96146813 406.18976132 532.46612266 398.85469654 528 391.5 C520.54911823 379.23156749 513.0120792 367.01702608 505.40382385 354.8455658 C504.95364678 354.12536223 504.50346972 353.40515867 504.03965092 352.66313076 C503.69656611 352.11429761 503.35348131 351.56546446 503 351 C502.99944384 351.64641408 502.99888767 352.29282816 502.99831466 352.95883054 C502.93765116 423.38514681 502.87452877 493.81146071 502.79867554 564.23776245 C502.79754191 565.2909239 502.79640829 566.34408534 502.79524031 567.42916077 C502.77058488 590.32102195 502.74549182 613.21288263 502.71994839 636.10474283 C502.7074233 647.3320355 502.69499484 658.55932827 502.68261719 669.78662109 C502.68138386 670.90383034 502.68015054 672.02103959 502.67887984 673.17210366 C502.6389995 709.33876342 502.60549169 745.50542564 502.57531309 781.67209468 C502.54424883 818.85961393 502.50670654 856.04712121 502.46109388 893.23462559 C502.45464414 898.49547618 502.44826792 903.75632685 502.44193649 909.01717758 C502.44068819 910.05251775 502.43943988 911.08785792 502.43815375 912.15457204 C502.41830434 928.77406131 502.40521864 945.39354924 502.39470672 962.01304675 C502.38397489 978.74947694 502.36601166 995.4858873 502.34083296 1012.22230209 C502.32611667 1022.14737923 502.31677873 1032.07242605 502.31543317 1041.9975142 C502.31398139 1048.6515954 502.30521775 1055.30564267 502.29084408 1061.9597084 C502.28288703 1065.73562037 502.27778824 1069.51146593 502.28172119 1073.28738584 C502.3037725 1097.72727178 501.56014443 1122.19016273 498.25 1146.4375 C497.99621582 1148.33024658 497.99621582 1148.33024658 497.73730469 1150.26123047 C487.05560574 1226.92091892 457.55100894 1302.43711247 401 1357 C398.47681836 1359.50695539 395.97227939 1362.02849783 393.4921875 1364.578125 C387.32954981 1370.86953422 380.93167594 1376.54905591 374 1382 C372.93029598 1382.85981487 371.86131187 1383.720526 370.79296875 1384.58203125 C355.66238625 1396.71763104 339.79529064 1407.30915639 323 1417 C322.20787109 1417.4626123 321.41574219 1417.92522461 320.59960938 1418.40185547 C253.44621904 1457.45451867 171.1691359 1474.98020229 93.89453125 1475.203125 C92.37775136 1475.21019069 90.86097179 1475.21732337 89.3441925 1475.22451782 C84.5002902 1475.24411121 79.65643819 1475.24921242 74.8125 1475.25 C73.98325768 1475.25029457 73.15401535 1475.25058914 72.29964447 1475.25089264 C46.42554175 1475.25237602 20.75678419 1474.76431921 -5.01593018 1472.28509521 C-8.30663014 1471.97070485 -11.59827771 1471.66772963 -14.89013672 1471.36572266 C-149.0241847 1458.99193843 -149.0241847 1458.99193843 -185 1447 C-185 1386.94 -185 1326.88 -185 1265 C-173.79423291 1265 -167.07794636 1265.32240524 -157.05578613 1268.84387207 C-153.32231337 1270.14895812 -149.55927773 1271.36337657 -145.796875 1272.58203125 C-144.96766541 1272.85151581 -144.13845581 1273.12100037 -143.28411865 1273.39865112 C-54.20044185 1302.00832423 37.4770218 1315.05748633 192 1285 C192.73895508 1284.71543945 193.47791016 1284.43087891 194.23925781 1284.13769531 C215.30325086 1275.86432029 233.55729884 1263.44617381 250 1248 C250.88365234 1247.21302734 250.88365234 1247.21302734 251.78515625 1246.41015625 C295.36924044 1205.91714186 300.96404075 1136.48791085 304.6875 1081 C304.74843842 1080.10862335 304.80937683 1079.2172467 304.87216187 1078.29885864 C306.88067878 1048.35975965 307.15280067 1018.35335861 307.1572054 988.35851225 C307.15897448 983.89117562 307.16648039 979.42384742 307.17318195 974.95651597 C307.18411332 967.16720339 307.19156061 959.37789391 307.19658089 951.58857536 C307.20406209 940.00655578 307.21716125 928.42454704 307.23132664 916.84253394 C307.25501237 897.34975602 307.27426833 877.85697615 307.29092598 858.36419106 C307.30741399 839.08716884 307.32591608 819.81015025 307.34705925 800.53313255 C307.34837686 799.33080309 307.34969446 798.12847362 307.351052 796.88970993 C307.35775486 790.78272443 307.36449323 784.67573896 307.37124526 778.5687535 C307.41890249 735.40676043 307.46211759 692.24476395 307.50268555 649.08276367 C307.54208654 607.17325595 307.58352128 565.26375103 307.62768555 523.35424805 C307.62904808 522.06051688 307.63041061 520.7667857 307.63181442 519.43385056 C307.64550078 506.44068268 307.65922823 493.44751484 307.67298577 480.45434703 C307.70100603 453.99000663 307.7287522 427.52566594 307.7563324 401.06132507 C307.7576006 399.84476035 307.7588688 398.62819562 307.76017542 397.3747653 C307.79900232 360.11486033 307.83666837 322.85495431 307.8731842 285.595047 C307.8742206 284.53799987 307.87525699 283.48095274 307.87632478 282.39187388 C307.91826812 239.59458328 307.95897926 196.79729149 308 154 C206.36 154 104.72 154 0 154 C0 103.18 0 52.36 0 0 Z " fill="#FFFFFF" transform="translate(185,0)"/>
</svg>
